<svg width="256" height="256" viewBox="0 0 256 256" fill="none" xmlns="http://www.w3.org/2000/svg">
  <defs>
    <linearGradient id="bg" x1="32" y1="24" x2="220" y2="236" gradientUnits="userSpaceOnUse">
      <stop stop-color="#FFD166"/>
      <stop offset="0.5" stop-color="#FF8C42"/>
      <stop offset="1" stop-color="#FF4D6D"/>
    </linearGradient>
    <linearGradient id="coin" x1="70" y1="52" x2="188" y2="204" gradientUnits="userSpaceOnUse">
      <stop stop-color="#FFF4B2"/>
      <stop offset="1" stop-color="#FFE082"/>
    </linearGradient>
  </defs>
  <rect x="20" y="20" width="216" height="216" rx="56" fill="url(#bg)"/>
  <circle cx="128" cy="128" r="76" fill="url(#coin)" fill-opacity="0.92"/>
  <path d="M118 81H139C159.435 81 174 91.3946 174 108.5C174 119.993 166.628 128.624 154.75 131.875C169.15 134.72 178 144.019 178 157.5C178 176.309 162.855 187 140.5 187H118V81ZM133 94V126H139.5C151.926 126 159 120.738 159 110.5C159 100.506 152.327 94 140 94H133ZM133 139V174H141C154.51 174 162.5 167.765 162.5 156.5C162.5 145.311 154.345 139 140.25 139H133Z" fill="#0B132B"/>
  <path d="M108 70H120V197H108V70ZM136 70H148V197H136V70Z" fill="#0B132B"/>
</svg>
